<mxfile host="65bd71144e">
    <diagram name="第 1 页" id="_kCn5gWWrIlWfqqUU_DX">
        <mxGraphModel dx="1090" dy="654" grid="1" gridSize="10" guides="1" tooltips="1" connect="1" arrows="1" fold="1" page="1" pageScale="1" pageWidth="1100" pageHeight="1700" math="0" shadow="0">
            <root>
                <mxCell id="0"/>
                <mxCell id="1" parent="0"/>
                <mxCell id="3" value="&lt;p&gt;&lt;font style=&quot;font-size: 16px;&quot;&gt;老師&lt;/font&gt;&lt;/p&gt;" style="shape=umlLifeline;participant=umlActor;perimeter=lifelinePerimeter;whiteSpace=wrap;html=1;container=1;collapsible=0;recursiveResize=0;verticalAlign=top;spacingTop=36;outlineConnect=0;size=60;align=center;" parent="1" vertex="1">
                    <mxGeometry x="130" y="90" width="40" height="500" as="geometry"/>
                </mxCell>
                <mxCell id="5" value="首頁UI" style="shape=umlLifeline;participant=umlBoundary;perimeter=lifelinePerimeter;whiteSpace=wrap;html=1;container=1;collapsible=0;recursiveResize=0;verticalAlign=top;spacingTop=36;outlineConnect=0;fontSize=16;" parent="1" vertex="1">
                    <mxGeometry x="250" y="100" width="50" height="490" as="geometry"/>
                </mxCell>
                <mxCell id="16" value="" style="html=1;points=[];perimeter=orthogonalPerimeter;" vertex="1" parent="5">
                    <mxGeometry x="20" y="90" width="10" height="50" as="geometry"/>
                </mxCell>
                <mxCell id="6" value="輸入資料UI" style="shape=umlLifeline;participant=umlBoundary;perimeter=lifelinePerimeter;whiteSpace=wrap;html=1;container=1;collapsible=0;recursiveResize=0;verticalAlign=top;spacingTop=36;outlineConnect=0;fontSize=16;" parent="1" vertex="1">
                    <mxGeometry x="370" y="100" width="50" height="490" as="geometry"/>
                </mxCell>
                <mxCell id="18" value="" style="html=1;points=[];perimeter=orthogonalPerimeter;" vertex="1" parent="6">
                    <mxGeometry x="20" y="140" width="10" height="60" as="geometry"/>
                </mxCell>
                <mxCell id="7" value="確認結果UI" style="shape=umlLifeline;participant=umlBoundary;perimeter=lifelinePerimeter;whiteSpace=wrap;html=1;container=1;collapsible=0;recursiveResize=0;verticalAlign=top;spacingTop=36;outlineConnect=0;fontSize=16;" parent="1" vertex="1">
                    <mxGeometry x="490" y="100" width="50" height="490" as="geometry"/>
                </mxCell>
                <mxCell id="8" value="Application Core" style="shape=umlLifeline;perimeter=lifelinePerimeter;whiteSpace=wrap;html=1;container=1;collapsible=0;recursiveResize=0;outlineConnect=0;" vertex="1" parent="1">
                    <mxGeometry x="590" y="110" width="100" height="480" as="geometry"/>
                </mxCell>
                <mxCell id="22" value="" style="html=1;points=[];perimeter=orthogonalPerimeter;" vertex="1" parent="8">
                    <mxGeometry x="45" y="190" width="10" height="60" as="geometry"/>
                </mxCell>
                <mxCell id="15" value="1:建立備課資料()" style="html=1;verticalAlign=bottom;endArrow=classicThin;endFill=1;" edge="1" parent="1" target="16">
                    <mxGeometry x="-0.0044" width="80" relative="1" as="geometry">
                        <mxPoint x="150" y="190" as="sourcePoint"/>
                        <mxPoint x="250" y="190" as="targetPoint"/>
                        <mxPoint as="offset"/>
                    </mxGeometry>
                </mxCell>
                <mxCell id="17" value="2:輸入備課資料()" style="html=1;verticalAlign=bottom;endArrow=classicThin;endFill=1;exitX=1.016;exitY=1.017;exitDx=0;exitDy=0;exitPerimeter=0;" edge="1" parent="1" source="16" target="18">
                    <mxGeometry x="-0.0044" width="80" relative="1" as="geometry">
                        <mxPoint x="300" y="260" as="sourcePoint"/>
                        <mxPoint x="360" y="260" as="targetPoint"/>
                        <mxPoint as="offset"/>
                    </mxGeometry>
                </mxCell>
                <mxCell id="21" value="3:傳送備課資料" style="html=1;verticalAlign=bottom;endArrow=classicThin;endFill=1;exitX=0.64;exitY=0.988;exitDx=0;exitDy=0;exitPerimeter=0;" edge="1" parent="1" source="18" target="22">
                    <mxGeometry x="-0.0044" width="80" relative="1" as="geometry">
                        <mxPoint x="430.1600000000001" y="300" as="sourcePoint"/>
                        <mxPoint x="540" y="300" as="targetPoint"/>
                        <mxPoint as="offset"/>
                    </mxGeometry>
                </mxCell>
                <mxCell id="24" value="4:" style="html=1;verticalAlign=bottom;endArrow=open;dashed=1;endSize=8;exitX=0.521;exitY=1.052;exitDx=0;exitDy=0;exitPerimeter=0;" edge="1" parent="1" source="22">
                    <mxGeometry relative="1" as="geometry">
                        <mxPoint x="620" y="360" as="sourcePoint"/>
                        <mxPoint x="550" y="363" as="targetPoint"/>
                    </mxGeometry>
                </mxCell>
            </root>
        </mxGraphModel>
    </diagram>
</mxfile>